G04 Layer_Physical_Order=1*
G04 Layer_Color=255*
%FSLAX25Y25*%
%MOIN*%
G70*
G01*
G75*
%ADD10O,0.02400X0.08000*%
%ADD11R,0.02400X0.08000*%
%ADD12R,0.03000X0.03000*%
G04:AMPARAMS|DCode=13|XSize=51.18mil|YSize=43.31mil|CornerRadius=10.83mil|HoleSize=0mil|Usage=FLASHONLY|Rotation=180.000|XOffset=0mil|YOffset=0mil|HoleType=Round|Shape=RoundedRectangle|*
%AMROUNDEDRECTD13*
21,1,0.05118,0.02165,0,0,180.0*
21,1,0.02953,0.04331,0,0,180.0*
1,1,0.02165,-0.01476,0.01083*
1,1,0.02165,0.01476,0.01083*
1,1,0.02165,0.01476,-0.01083*
1,1,0.02165,-0.01476,-0.01083*
%
%ADD13ROUNDEDRECTD13*%
%ADD14R,0.05118X0.04331*%
%ADD15R,0.03000X0.03000*%
%ADD16R,0.04331X0.04921*%
%ADD17R,0.04921X0.04331*%
%ADD18C,0.02000*%
%ADD19C,0.01500*%
%ADD20C,0.01000*%
%ADD21C,0.10236*%
%ADD22C,0.04724*%
%ADD23C,0.04331*%
%ADD24C,0.07000*%
%ADD25R,0.07000X0.07000*%
G36*
X-13605Y35077D02*
X-14627Y34293D01*
X-14670Y34127D01*
X-14670Y33873D01*
X-14627Y33707D01*
X-13605Y32923D01*
X-12917Y32026D01*
X-7353D01*
Y35974D01*
X-12917D01*
X-13605Y35077D01*
D02*
G37*
G36*
X12612Y46860D02*
X11985Y46380D01*
X11256Y46077D01*
X10472Y45974D01*
X-12028D01*
Y43500D01*
X-13580D01*
X-13740Y43027D01*
X-13605Y42923D01*
X-12917Y42026D01*
X-5528D01*
X-4744Y41923D01*
X-4015Y41620D01*
X-3388Y41140D01*
X-2188Y39940D01*
X-1707Y39313D01*
X-1405Y38583D01*
X-1302Y37800D01*
Y27094D01*
X-76Y25868D01*
X386Y26059D01*
Y28575D01*
Y36906D01*
X2972D01*
Y42500D01*
X11472D01*
Y39000D01*
X11972D01*
Y38500D01*
X15472D01*
Y36932D01*
X15476D01*
X16281Y36826D01*
X17031Y36516D01*
X17675Y36021D01*
X18169Y35377D01*
X18480Y34628D01*
X18586Y33823D01*
Y32774D01*
X20329D01*
X20689Y32923D01*
X21472Y33026D01*
X25472D01*
X26256Y32923D01*
X26985Y32620D01*
X27612Y32140D01*
X30331Y29420D01*
X30914Y29545D01*
X31070Y29922D01*
X31511Y30497D01*
X33743Y32729D01*
X33743Y32729D01*
X36976Y35961D01*
X37550Y36402D01*
X38219Y36679D01*
X38937Y36774D01*
X58712D01*
X58929Y37264D01*
X56557Y39636D01*
X56313Y39824D01*
X55972Y39881D01*
X55632Y39824D01*
X55086Y39405D01*
X54308Y39082D01*
X53472Y38972D01*
X52637Y39082D01*
X51859Y39405D01*
X51313Y39824D01*
X50972Y39881D01*
X50632Y39824D01*
X50086Y39405D01*
X49308Y39082D01*
X48472Y38972D01*
X47637Y39082D01*
X46859Y39405D01*
X46313Y39824D01*
X45972Y39881D01*
X45632Y39824D01*
X45086Y39405D01*
X44308Y39082D01*
X43472Y38972D01*
X42637Y39082D01*
X41859Y39405D01*
X41313Y39824D01*
X40972Y39881D01*
X40632Y39824D01*
X40086Y39405D01*
X39308Y39082D01*
X38472Y38972D01*
X37637Y39082D01*
X36859Y39405D01*
X36313Y39824D01*
X35972Y39881D01*
X35632Y39824D01*
X35086Y39405D01*
X34308Y39082D01*
X33472Y38972D01*
X32637Y39082D01*
X31859Y39405D01*
X31313Y39824D01*
X30972Y39881D01*
X30632Y39824D01*
X30086Y39405D01*
X29308Y39082D01*
X28472Y38972D01*
X27637Y39082D01*
X26859Y39405D01*
X26313Y39824D01*
X25972Y39881D01*
X25632Y39824D01*
X25086Y39405D01*
X24308Y39082D01*
X23472Y38972D01*
X22637Y39082D01*
X21859Y39405D01*
X21190Y39918D01*
X20677Y40586D01*
X20355Y41365D01*
X20245Y42200D01*
Y47800D01*
X20334Y48474D01*
X20017Y48974D01*
X14726D01*
X12612Y46860D01*
D02*
G37*
G36*
X-24441Y24835D02*
X-33362D01*
Y24835D01*
X-33693D01*
Y24835D01*
X-42614D01*
Y25500D01*
X-46502D01*
Y22500D01*
X-42614D01*
Y23165D01*
X-33693D01*
Y23165D01*
X-33362D01*
Y23165D01*
X-24441D01*
Y22026D01*
X-22138D01*
X-21450Y22923D01*
X-20428Y23707D01*
X-20385Y23873D01*
X-20385Y24127D01*
X-20428Y24293D01*
X-21450Y25077D01*
X-22138Y25974D01*
X-24441D01*
Y24835D01*
D02*
G37*
G36*
X-46248Y33000D02*
X-46041Y32500D01*
X-42614D01*
Y33165D01*
X-33693D01*
Y33165D01*
X-33362D01*
Y33165D01*
X-24441D01*
Y32026D01*
X-22138D01*
X-21450Y32923D01*
X-20428Y33707D01*
X-20385Y33873D01*
X-20385Y34127D01*
X-20428Y34293D01*
X-21450Y35077D01*
X-22138Y35974D01*
X-43274D01*
X-46248Y33000D01*
D02*
G37*
G36*
X-55979Y2549D02*
X106157D01*
X106233Y2710D01*
X106339Y3049D01*
X105707Y4231D01*
X105300Y5573D01*
X105212Y6469D01*
X119418D01*
X119330Y5573D01*
X118923Y4231D01*
X118291Y3049D01*
X118397Y2710D01*
X118473Y2549D01*
X120923D01*
Y17518D01*
X120461Y17710D01*
X116833Y14081D01*
X116832Y14081D01*
X116206Y13600D01*
X116129Y13568D01*
X116102Y13016D01*
X116289Y12916D01*
X117373Y12026D01*
X118262Y10942D01*
X118923Y9706D01*
X119330Y8364D01*
X119418Y7468D01*
X105212D01*
X105300Y8364D01*
X105707Y9706D01*
X106368Y10942D01*
X107257Y12026D01*
X108072Y12695D01*
X107893Y13195D01*
X105649D01*
X105584Y13109D01*
X104672Y12410D01*
X103611Y11971D01*
X102472Y11821D01*
X101334Y11971D01*
X100273Y12410D01*
X99361Y13109D01*
X98662Y14021D01*
X98223Y15082D01*
X98073Y16220D01*
X98223Y17359D01*
X98662Y18420D01*
X99361Y19332D01*
X100273Y20031D01*
X101334Y20470D01*
X102472Y20620D01*
X103611Y20470D01*
X104672Y20031D01*
X105584Y19332D01*
X105649Y19246D01*
X107748D01*
X108026Y19662D01*
X107863Y20054D01*
X107720Y21142D01*
X107863Y22229D01*
X108283Y23242D01*
X108950Y24113D01*
X109821Y24780D01*
X110834Y25200D01*
X111921Y25343D01*
X113009Y25200D01*
X114022Y24780D01*
X114892Y24113D01*
X115560Y23242D01*
X115720Y22855D01*
X116335Y22677D01*
X116447Y22757D01*
Y37656D01*
X115979Y37771D01*
X115560Y36758D01*
X114892Y35888D01*
X114022Y35220D01*
X113009Y34800D01*
X111921Y34657D01*
X110834Y34800D01*
X110662Y34871D01*
X110246Y34594D01*
Y31000D01*
X110152Y30282D01*
X109875Y29613D01*
X109434Y29039D01*
X106824Y26429D01*
X106872Y26063D01*
X106722Y24924D01*
X106283Y23863D01*
X105584Y22952D01*
X104672Y22253D01*
X103611Y21813D01*
X102472Y21663D01*
X101334Y21813D01*
X100273Y22253D01*
X99361Y22952D01*
X98662Y23863D01*
X98223Y24924D01*
X98073Y26063D01*
X98223Y27202D01*
X98662Y28263D01*
X98673Y28278D01*
X98452Y28726D01*
X91924D01*
X91685Y28488D01*
X91111Y28047D01*
X90442Y27770D01*
X89724Y27676D01*
X71972D01*
Y21000D01*
Y19500D01*
X64972D01*
Y21000D01*
Y23721D01*
X63820Y24873D01*
X61865D01*
X61672Y24704D01*
Y23500D01*
X58472D01*
Y23000D01*
X57972D01*
Y17000D01*
X56305D01*
X56093Y16487D01*
X55612Y15860D01*
X46612Y6860D01*
X45985Y6380D01*
X45256Y6077D01*
X44472Y5974D01*
X-2528D01*
X-3311Y6077D01*
X-4041Y6380D01*
X-4667Y6860D01*
X-13024Y15217D01*
X-13523Y15184D01*
X-13605Y15077D01*
X-14627Y14293D01*
X-14670Y14127D01*
X-14670Y13873D01*
X-14627Y13707D01*
X-13605Y12923D01*
X-12723Y11774D01*
X-12169Y10436D01*
X-12046Y9500D01*
X-23009D01*
X-22886Y10436D01*
X-22332Y11774D01*
X-21450Y12923D01*
X-20428Y13707D01*
X-20385Y13873D01*
X-20385Y14127D01*
X-20428Y14293D01*
X-21450Y15077D01*
X-22138Y15974D01*
X-24441D01*
Y14835D01*
X-33362D01*
Y14835D01*
X-33693D01*
Y14835D01*
X-42614D01*
Y15500D01*
X-53028D01*
Y22500D01*
X-52553D01*
Y25500D01*
X-53028D01*
Y32500D01*
X-52553D01*
Y34000D01*
X-52450Y34783D01*
X-52148Y35513D01*
X-51667Y36140D01*
X-51667Y36140D01*
X-46667Y41140D01*
X-46040Y41620D01*
X-45311Y41923D01*
X-44528Y42026D01*
X-22138D01*
X-21450Y42923D01*
X-21315Y43027D01*
X-21476Y43500D01*
X-23028D01*
Y54500D01*
X-12028D01*
Y52026D01*
X9219D01*
X11333Y54140D01*
X11959Y54620D01*
X12689Y54923D01*
X13472Y55026D01*
X57472D01*
X58256Y54923D01*
X58985Y54620D01*
X59612Y54140D01*
X59612Y54140D01*
X60612Y53140D01*
X61093Y52513D01*
X61395Y51783D01*
X61492Y51047D01*
X61972Y51000D01*
X61972Y51000D01*
X61972Y51000D01*
X64972D01*
Y47500D01*
X65972D01*
Y51000D01*
X72953D01*
X73307Y51354D01*
Y52126D01*
X81638D01*
Y48165D01*
X81638Y48165D01*
Y47835D01*
X81638D01*
X81638Y47665D01*
Y41325D01*
X85219D01*
X95034Y51140D01*
X95660Y51621D01*
X96390Y51923D01*
X97173Y52026D01*
X104472D01*
X104763Y51988D01*
X105221Y52432D01*
X105212Y52531D01*
X112315D01*
Y53531D01*
X105212D01*
X105300Y54427D01*
X105707Y55769D01*
X106339Y56951D01*
X106233Y57290D01*
X106157Y57451D01*
X81965D01*
X81638Y57087D01*
Y53126D01*
X73307D01*
Y57087D01*
X72980Y57451D01*
X-55979D01*
Y2549D01*
D02*
G37*
G36*
X89717Y37264D02*
X89933Y36774D01*
X93323D01*
X96511Y39961D01*
X97086Y40402D01*
X97755Y40679D01*
X98472Y40774D01*
X98715D01*
X98936Y41222D01*
X98662Y41580D01*
X98223Y42641D01*
X98138Y43279D01*
X102472D01*
Y44280D01*
X98138D01*
X98223Y44918D01*
X98325Y45165D01*
X97901Y45448D01*
X89717Y37264D01*
D02*
G37*
%LPC*%
G36*
X68972Y18500D02*
X71972D01*
Y15500D01*
X68972D01*
Y18500D01*
D02*
G37*
G36*
X-23009Y8500D02*
X-18028D01*
Y3518D01*
X-18963Y3641D01*
X-20301Y4196D01*
X-21450Y5077D01*
X-22332Y6226D01*
X-22886Y7564D01*
X-23009Y8500D01*
D02*
G37*
G36*
X-17028D02*
X-12046D01*
X-12169Y7564D01*
X-12723Y6226D01*
X-13605Y5077D01*
X-14754Y4196D01*
X-16092Y3641D01*
X-17028Y3518D01*
Y8500D01*
D02*
G37*
G36*
X12472Y42500D02*
X15472D01*
Y39500D01*
X12472D01*
Y42500D01*
D02*
G37*
G36*
X58972Y22500D02*
X61672D01*
Y17000D01*
X58972D01*
Y22500D01*
D02*
G37*
G36*
X64972Y18500D02*
X67972D01*
Y15500D01*
X64972D01*
Y18500D01*
D02*
G37*
%LPD*%
D10*
X48472Y45000D02*
D03*
X23472D02*
D03*
X28472Y23000D02*
D03*
X43472Y45000D02*
D03*
X23472Y23000D02*
D03*
X53472D02*
D03*
X48472D02*
D03*
X43472D02*
D03*
X38472D02*
D03*
X33472D02*
D03*
X38472Y45000D02*
D03*
X53472D02*
D03*
X28472D02*
D03*
X33472D02*
D03*
X58472D02*
D03*
D11*
Y23000D02*
D03*
D12*
X68472Y19000D02*
D03*
Y24500D02*
D03*
X65472Y47500D02*
D03*
Y42000D02*
D03*
X71472Y47500D02*
D03*
Y42000D02*
D03*
D13*
X14000Y32740D02*
D03*
D14*
X4945D02*
D03*
Y25260D02*
D03*
X14000D02*
D03*
D15*
X6472Y39000D02*
D03*
X11972D02*
D03*
X6472Y19000D02*
D03*
X11972D02*
D03*
X-44028Y29000D02*
D03*
X-49528D02*
D03*
X-44028Y19000D02*
D03*
X-49528D02*
D03*
D16*
X77472Y43374D02*
D03*
Y52626D02*
D03*
D17*
X-38153Y29000D02*
D03*
X-28902D02*
D03*
X-38153Y19000D02*
D03*
X-28902D02*
D03*
D18*
X68472D02*
X58472D01*
X75472D02*
X68472D01*
X80504Y6968D02*
X68472Y19000D01*
X112315Y6968D02*
X80504D01*
X77472Y52626D02*
X76472Y51626D01*
X77878Y53031D02*
X77472Y52626D01*
X76472Y51626D02*
X67098D01*
X83776D02*
X76472D01*
X112315Y53031D02*
X77878D01*
X12172Y39200D02*
X8372Y43000D01*
X-1528D01*
X12172Y39200D02*
X11972Y39000D01*
X57313Y39200D02*
X12172D01*
X60113Y36400D02*
X57313Y39200D01*
X63566Y36400D02*
X60113D01*
X63766Y36200D02*
X63566Y36400D01*
X64313Y36200D02*
X63766D01*
X65013Y35499D02*
X64313Y36200D01*
X87632Y35499D02*
X65013D01*
X95912Y43780D02*
X87632Y35499D01*
X102472Y43780D02*
X95912D01*
X61272Y39200D02*
X58472Y42000D01*
X64726Y39200D02*
X61272D01*
X64926Y39000D02*
X64726Y39200D01*
X65472Y39000D02*
X64926D01*
X56965Y28800D02*
X56815Y28950D01*
X60418Y28800D02*
X56965D01*
X60618Y28600D02*
X60418Y28800D01*
X61165Y28600D02*
X60618D01*
X56815Y28950D02*
X44422D01*
X61865Y27899D02*
X61165Y28600D01*
X65073Y27899D02*
X61865D01*
X68472Y24500D02*
X65073Y27899D01*
X44422Y28950D02*
X43472Y28000D01*
X86472Y38299D02*
X71472D01*
X97173Y49000D02*
X86472Y38299D01*
X43472Y23000D02*
Y28000D01*
X103052Y43200D02*
X102472Y43780D01*
X114693Y16220D02*
X102472D01*
X119472Y21000D02*
X114693Y16220D01*
X119472Y21000D02*
Y43000D01*
X116472Y46000D01*
Y42000D02*
X115272Y43200D01*
X116472Y32000D02*
Y42000D01*
Y32000D02*
X105472Y21000D01*
X115272Y43200D02*
X103052D01*
X116472Y46000D02*
X107472D01*
X104472Y49000D01*
X97173D01*
X105472Y21000D02*
X94472D01*
X87953Y14480D01*
X-1528Y27000D02*
Y43000D01*
X213Y25260D02*
X-1528Y27000D01*
X-4328Y37800D02*
X-5528Y39000D01*
X4945Y25260D02*
X213D01*
X-7128Y29000D02*
X-17528D01*
X-7128Y24680D02*
Y29000D01*
X-4528Y22080D02*
X-7128Y24680D01*
X-4528Y16000D02*
Y22080D01*
X-4328Y25840D02*
Y37800D01*
X-1528Y23040D02*
X-4328Y25840D01*
X-1528Y18000D02*
Y23040D01*
X1472Y15000D02*
X-1528Y18000D01*
X-528Y12000D02*
X-4528Y16000D01*
X-2528Y9000D02*
X-12528Y19000D01*
X67098Y51626D02*
X65472Y50000D01*
Y47500D02*
Y50000D01*
X66173Y38299D02*
X65472Y39000D01*
X71472Y38299D02*
Y42000D01*
Y38299D02*
X66173D01*
X21213Y25260D02*
X14000D01*
X23472Y23000D02*
X21213Y25260D01*
X11972Y34768D02*
Y39000D01*
X14000Y32740D02*
X11972Y34768D01*
X4945Y20528D02*
Y25260D01*
X6472Y19000D02*
X4945Y20528D01*
X11972Y19000D02*
Y23232D01*
X14000Y25260D02*
X11972Y23232D01*
X6472Y34268D02*
X4945Y32740D01*
X6472Y34268D02*
Y39000D01*
X28472Y23000D02*
Y27000D01*
X25472Y30000D01*
X21472D01*
X87953Y14480D02*
X79992D01*
X75472Y19000D01*
X58472Y45000D02*
Y51000D01*
X48472Y18000D02*
Y23000D01*
X53472Y18000D02*
Y23000D01*
X43472Y18000D02*
Y23000D01*
Y18000D02*
X40472Y15000D01*
X1472D01*
X48472Y18000D02*
X42472Y12000D01*
X53472Y18000D02*
X44472Y9000D01*
X-5528Y39000D02*
X-17528D01*
X42472Y12000D02*
X-528D01*
X44472Y9000D02*
X-2528D01*
X-17528Y39000D02*
X-44528D01*
X-49528Y34000D01*
Y19000D02*
Y29000D01*
Y34000D01*
X-38153Y29000D02*
X-44028D01*
X-38153Y19000D02*
X-44028D01*
X-17528Y29000D02*
X-28902D01*
X-17528Y19000D02*
X-28902D01*
X-13528Y5000D02*
X-17528Y9000D01*
X10472Y49000D02*
X-17528D01*
X-12528Y19000D02*
X-17528D01*
X50472Y5000D02*
X-13528D01*
X58472Y13000D02*
X50472Y5000D01*
X65472Y39000D02*
Y42000D01*
X58472Y13000D02*
Y22000D01*
Y51000D02*
X57472Y52000D01*
X13472D01*
X10472Y49000D01*
D19*
X59056Y33850D02*
X58906Y34000D01*
X62510Y33850D02*
X59056D01*
X62710Y33650D02*
X62510Y33850D01*
X63256Y33650D02*
X62710D01*
X58021Y31350D02*
X57871Y31500D01*
X61474Y31350D02*
X58021D01*
X61674Y31150D02*
X61474Y31350D01*
X62221Y31150D02*
X61674D01*
X57871Y31500D02*
X40222D01*
X62922Y30449D02*
X62221Y31150D01*
X58906Y34000D02*
X38937D01*
X63957Y32949D02*
X63256Y33650D01*
X68221Y30449D02*
X62922D01*
X69256Y32949D02*
X63957D01*
X89724Y30449D02*
X68221D01*
X90775Y31500D02*
X89724Y30449D01*
X95508Y31500D02*
X90775D01*
X100035D02*
X95508D01*
X88688Y32949D02*
X69256D01*
X89739Y34000D02*
X88688Y32949D01*
X94472Y34000D02*
X89739D01*
X38937D02*
X35705Y30768D01*
X40222Y31500D02*
X38472Y29750D01*
X102472Y33937D02*
X100035Y31500D01*
X98472Y38000D02*
X94472Y34000D01*
X107472Y31000D02*
X102535Y26063D01*
X107472Y31000D02*
Y36000D01*
X105472Y38000D01*
X98472D01*
X102535Y26063D02*
X102472D01*
X21472Y30000D02*
X17542D01*
X16567Y29025D01*
X8497D01*
X4945Y32577D01*
Y32740D01*
X35705Y30768D02*
Y30768D01*
X38472Y23000D02*
Y29750D01*
X35705Y30768D02*
X33472Y28536D01*
Y23000D02*
Y28536D01*
D20*
X77472Y42374D02*
X72347Y47500D01*
X71472D01*
X123472Y0D02*
Y60000D01*
Y0D02*
X-58528D01*
Y60000D01*
X123472D02*
X-58528D01*
D21*
X112315Y53031D02*
D03*
Y6968D02*
D03*
D22*
X102472Y43780D02*
D03*
Y33937D02*
D03*
Y26063D02*
D03*
Y16220D02*
D03*
D23*
X111921Y21142D02*
D03*
Y38858D02*
D03*
D24*
X-17528Y9000D02*
D03*
X-17528Y19000D02*
D03*
X-17528Y39000D02*
D03*
X-17528Y29000D02*
D03*
D25*
X-17528Y49000D02*
D03*
M02*
